<svg width="22" height="28" viewBox="0 0 22 28" fill="none" xmlns="http://www.w3.org/2000/svg">
<path d="M12.5643 0.810019C12.7363 0.912487 12.9083 1.01488 13.0803 1.1172C13.1638 1.16717 13.2473 1.21713 13.3333 1.26861C13.6635 1.46498 13.9968 1.65561 14.3317 1.84394C14.3842 1.87378 14.4368 1.90363 14.4909 1.93438C15.0842 2.26798 15.6751 2.33136 16.3435 2.22593C16.7333 2.09215 17.0765 1.90558 17.4321 1.69902C17.6451 1.57532 17.8593 1.45404 18.074 1.33321C19.1396 0.746088 19.1396 0.746088 20.1736 0.107158C20.4588 0.0765985 20.4588 0.0765985 20.744 0.107158C20.9869 0.349184 21.0195 0.53524 21.0214 0.871217C21.023 1.00262 21.023 1.00262 21.0246 1.13668C21.0242 1.27815 21.0242 1.27815 21.0238 1.42248C21.0243 1.51995 21.0247 1.61743 21.0251 1.71786C21.0256 1.92418 21.0255 2.1305 21.0248 2.33682C21.0241 2.65144 21.0265 2.96593 21.0291 3.28054C21.0292 3.48119 21.0292 3.68184 21.0289 3.88249C21.0298 3.97614 21.0308 4.06979 21.0317 4.16628C21.0269 4.72541 20.964 5.09195 20.6625 5.56706C20.4706 5.73323 20.4706 5.73323 20.2398 5.86247C20.1011 5.94189 20.1011 5.94189 19.9597 6.02291C19.8408 6.08829 19.722 6.15365 19.6031 6.21899C19.4384 6.31139 19.2737 6.40393 19.1091 6.49657C18.8425 6.64645 18.5758 6.796 18.3083 6.94434C17.8438 7.202 17.385 7.46526 16.9337 7.74564C16.3631 8.06778 15.7607 8.14179 15.1211 8.0118C14.57 7.8173 14.0717 7.4961 13.5728 7.19689C13.3164 7.04535 13.0598 6.89423 12.8029 6.74347C12.6341 6.64394 12.4659 6.54347 12.2982 6.44194C11.5732 6.00876 10.8493 5.65112 9.98719 5.81154C9.32662 6.05984 8.72563 6.43862 8.11512 6.78848C8.03977 6.83163 8.03977 6.83163 7.9629 6.87566C7.70932 7.02108 7.45626 7.16729 7.20409 7.31515C6.37702 7.79775 5.6739 8.17017 4.69026 8.0118C4.22709 7.84468 3.81272 7.60409 3.3864 7.35987C3.24818 7.28236 3.10996 7.20487 2.97167 7.12749C0.246587 5.60059 0.246587 5.60059 0.0452672 4.99663C0.0368605 4.84671 0.0331648 4.69651 0.0321363 4.54636C0.0313534 4.45417 0.0305705 4.36198 0.0297638 4.267C0.0294175 4.16742 0.0290712 4.06785 0.0287143 3.96525C0.0282498 3.86308 0.0277853 3.7609 0.0273067 3.65563C0.0265365 3.43944 0.0259745 3.22325 0.0256902 3.00706C0.0252425 2.73 0.0232828 2.45298 0.0209664 2.17594C0.0190846 1.91163 0.0189228 1.64732 0.0185279 1.383C0.0175218 1.28343 0.0165156 1.18385 0.015479 1.08126C0.0157235 0.989073 0.0159681 0.896884 0.0162201 0.801902C0.0157745 0.680045 0.0157745 0.680045 0.0153198 0.555727C0.0452672 0.351631 0.0452672 0.351631 0.154984 0.203151C0.367708 0.0516178 0.523754 0.0773207 0.778687 0.107158C1.01677 0.207728 1.01677 0.207728 1.26477 0.348766C1.3563 0.40022 1.44784 0.451673 1.54215 0.504686C1.63911 0.560597 1.73605 0.616536 1.83298 0.672503C1.93221 0.728785 2.03149 0.784989 2.13081 0.841115C2.75099 1.19284 3.36566 1.55361 3.97148 1.92957C4.56172 2.2721 5.16174 2.34067 5.83114 2.22593C6.22386 2.08678 6.57279 1.89882 6.93274 1.69058C7.17041 1.55358 7.41027 1.42085 7.65036 1.28814C8.27176 0.943706 8.89142 0.596264 9.50588 0.239581C10.5516 -0.345116 11.6536 0.25597 12.5643 0.810019Z" fill="#FDFDFD"/>
<path d="M0.778688 10.0491C1.02296 10.1571 1.02296 10.1571 1.27973 10.3085C1.34944 10.349 1.34944 10.349 1.42055 10.3903C1.57049 10.4776 1.71953 10.5664 1.86863 10.6552C1.97156 10.7153 2.07455 10.7754 2.17761 10.8354C2.38028 10.9534 2.58266 11.0719 2.78477 11.1909C3.12979 11.3937 3.47634 11.5935 3.82442 11.7909C3.87362 11.8195 3.92282 11.848 3.97351 11.8773C4.53524 12.1967 5.02832 12.3276 5.66816 12.2493C6.36641 12.0203 6.99674 11.6581 7.62394 11.2816C7.78693 11.1851 7.94991 11.0885 8.11289 10.9919C8.19262 10.9445 8.27235 10.897 8.3545 10.8481C8.61496 10.6932 8.87553 10.5385 9.13662 10.3846C9.21572 10.3378 9.29482 10.2911 9.37632 10.2429C9.7249 10.0504 10.0056 10.0312 10.3997 10.0236C10.5015 10.0206 10.6033 10.0175 10.7082 10.0144C11.4735 10.0544 12.1552 10.5271 12.7935 10.9098C12.9654 11.012 13.1373 11.114 13.3092 11.216C13.3943 11.2666 13.4793 11.3172 13.5669 11.3692C13.801 11.5064 14.0368 11.6391 14.2744 11.7699C14.3796 11.8285 14.3796 11.8285 14.4869 11.8882C14.6169 11.9602 14.7474 12.0314 14.8785 12.1013C14.9371 12.1341 14.9956 12.1669 15.0559 12.2006C15.1313 12.2416 15.1313 12.2416 15.2083 12.2834C15.5347 12.5509 15.7419 12.7926 15.8105 13.211C15.8256 13.4892 15.8274 13.7645 15.8243 14.0431C15.8245 14.1446 15.8247 14.2461 15.8249 14.3507C15.8248 14.6192 15.8228 14.8877 15.82 15.1562C15.8189 15.3208 15.8192 15.4853 15.82 15.6499C15.8216 15.9666 15.8208 16.2832 15.8192 16.5999C15.8196 16.698 15.82 16.7961 15.8204 16.8972C15.8192 16.9884 15.8179 17.0795 15.8165 17.1734C15.8158 17.2935 15.8158 17.2935 15.815 17.416C15.7612 17.6875 15.6628 17.7854 15.4471 17.9537C15.0743 18.0068 14.8564 17.9287 14.5399 17.7357C14.4223 17.6653 14.4223 17.6653 14.3024 17.5934C14.2196 17.5426 14.1368 17.4917 14.0516 17.4393C13.8768 17.3346 13.7019 17.2301 13.527 17.1257C13.4394 17.0732 13.3517 17.0207 13.2615 16.9665C12.8768 16.7384 12.4874 16.5195 12.0958 16.3035C12.0298 16.2666 11.9638 16.2297 11.8958 16.1917C11.2842 15.855 10.7714 15.6798 10.0687 15.7535C9.42639 15.9426 8.85655 16.2931 8.28606 16.6346C8.12159 16.7319 7.95712 16.8292 7.79266 16.9265C7.53986 17.0764 7.28737 17.2267 7.0356 17.3783C6.95054 17.429 6.86548 17.4797 6.77784 17.5319C6.70166 17.5777 6.62549 17.6235 6.54701 17.6706C6.11789 17.8977 5.7343 17.9821 5.25051 17.9945C5.15282 17.9987 5.05513 18.0029 4.95447 18.0072C4.14709 17.944 3.34307 17.3074 2.66317 16.9045C2.49226 16.8038 2.32132 16.7031 2.15035 16.6024C2.0689 16.5545 1.98745 16.5065 1.90353 16.4571C1.70657 16.3422 1.50871 16.2298 1.30933 16.1192C1.25727 16.0903 1.20521 16.0613 1.15157 16.0315C1.01959 15.9586 0.887222 15.8864 0.754813 15.8143C0.425041 15.6015 0.171065 15.3974 0.0452672 15.02C0.0368482 14.8676 0.0331635 14.7149 0.0321363 14.5623C0.0313534 14.4685 0.0305705 14.3746 0.0297638 14.278C0.0294175 14.1766 0.0290712 14.0753 0.0287143 13.9708C0.0282498 13.8668 0.0277853 13.7629 0.0273067 13.6557C0.0265365 13.4357 0.0259745 13.2157 0.0256902 12.9956C0.0252425 12.7137 0.0232825 12.4317 0.020966 12.1497C0.0190844 11.8807 0.0189228 11.6117 0.0185279 11.3427C0.0175218 11.2414 0.0165156 11.14 0.015479 11.0356C0.0157235 10.9418 0.0159681 10.848 0.0162201 10.7513C0.0157745 10.6273 0.0157745 10.6273 0.0153198 10.5007C0.0452672 10.2935 0.0452672 10.2935 0.155042 10.1447C0.368562 9.99313 0.523039 10.0182 0.778688 10.0491Z" fill="#FDFDFD"/>
<path d="M0.768963 20.0133C1.16243 20.1481 1.51031 20.3814 1.86356 20.5971C2.03794 20.7011 2.21238 20.805 2.38689 20.9087C2.47297 20.9602 2.55906 21.0118 2.64776 21.0648C3.00168 21.2753 3.35847 21.4803 3.71749 21.6819C3.77503 21.715 3.83258 21.748 3.89187 21.782C4.45813 22.0991 5.01768 22.2784 5.66818 22.1913C6.39414 21.9499 7.04987 21.5706 7.70546 21.1828C7.83813 21.1053 7.83813 21.1053 7.97349 21.0262C8.32931 20.8181 8.68493 20.6101 9.03697 20.3957C9.12344 20.3436 9.20991 20.2914 9.29899 20.2377C9.37629 20.1904 9.4536 20.1431 9.53324 20.0944C9.74286 19.9909 9.84983 19.9589 10.0789 19.9859C10.3132 20.0725 10.3132 20.0725 10.4762 20.2355C10.4974 20.4312 10.4974 20.4312 10.4985 20.6801C10.4993 20.7731 10.5001 20.8662 10.5009 20.962C10.5008 21.1135 10.5008 21.1135 10.5007 21.2681C10.501 21.3716 10.5014 21.4752 10.5017 21.5818C10.5022 21.8013 10.5023 22.0208 10.5019 22.2403C10.5014 22.5207 10.5028 22.8011 10.5047 23.0815C10.5062 23.3497 10.5059 23.6178 10.5058 23.886C10.5065 23.9864 10.5073 24.0867 10.508 24.1901C10.5033 25.0666 10.5033 25.0666 10.2317 25.4509C10.0477 25.6012 10.0477 25.6012 9.81404 25.7361C9.77005 25.762 9.72605 25.7878 9.68072 25.8144C9.51222 25.9123 9.34237 26.0076 9.1723 26.1028C9.09445 26.1467 9.01659 26.1905 8.93638 26.2357C8.58387 26.434 8.2312 26.632 7.87747 26.8281C7.41096 27.087 6.94962 27.3513 6.49493 27.6305C5.9598 27.9433 5.47182 28.0524 4.85327 27.9771C4.22762 27.7889 3.67311 27.4557 3.11649 27.1215C2.94498 27.0194 2.77341 26.9174 2.60176 26.8156C2.47269 26.739 2.47269 26.739 2.34101 26.6608C2.09159 26.5155 1.83994 26.3759 1.5863 26.2381C1.50855 26.1955 1.43079 26.1528 1.35068 26.1089C1.20413 26.0289 1.05697 25.95 0.909126 25.8724C0.842979 25.8359 0.776832 25.7995 0.70868 25.7619C0.622371 25.7158 0.622371 25.7158 0.534318 25.6688C0.215728 25.4023 0.0679335 25.1366 0.0152348 24.7301C0.00215865 24.4465 0.000120289 24.1648 0.00199948 23.8809C0.00168762 23.7774 0.00137576 23.6739 0.00105445 23.5672C0.000833162 23.3491 0.00126544 23.1311 0.00279529 22.913C0.00466 22.6335 0.00357715 22.3542 0.00163079 22.0748C0.000170734 21.8076 0.00119214 21.5404 0.00199948 21.2732C0.00100974 21.1227 0.00100974 21.1227 0 20.9692C0.00102749 20.8764 0.00205499 20.7836 0.00311361 20.688C0.00337295 20.6063 0.00363228 20.5246 0.00389948 20.4405C0.0452916 20.2355 0.0452916 20.2355 0.195412 20.0854C0.401429 19.9748 0.540449 19.9681 0.768963 20.0133Z" fill="#FDFDFD"/>
</svg>
