<svg width="41" height="55" viewBox="0 0 41 55" fill="none" xmlns="http://www.w3.org/2000/svg">
<path d="M24.4934 1.57908C24.8286 1.77884 25.1639 1.97845 25.4993 2.17792C25.6621 2.27532 25.8248 2.37272 25.9924 2.47307C26.6362 2.85588 27.2859 3.22751 27.9387 3.59465C28.0411 3.65283 28.1436 3.71101 28.2491 3.77096C29.4058 4.4213 30.5576 4.54484 31.8606 4.33931C32.6205 4.07853 33.2895 3.71481 33.9828 3.31214C34.398 3.071 34.8157 2.83456 35.2341 2.59901C37.3115 1.45445 37.3115 1.45445 39.3272 0.208898C39.8832 0.149324 39.8832 0.149324 40.4392 0.208898C40.9127 0.680712 40.9762 1.04342 40.98 1.69839C40.983 1.95455 40.983 1.95455 40.9861 2.2159C40.9854 2.49168 40.9854 2.49168 40.9847 2.77303C40.9855 2.96305 40.9863 3.15308 40.9872 3.34886C40.9882 3.75107 40.988 4.15329 40.9866 4.5555C40.9853 5.16882 40.9898 5.78191 40.9949 6.39521C40.9952 6.78637 40.9951 7.17753 40.9946 7.56868C40.9964 7.75125 40.9982 7.93382 41 8.12192C40.9906 9.2119 40.868 9.92645 40.2803 10.8527C39.9061 11.1766 39.9061 11.1766 39.4562 11.4285C39.1859 11.5834 39.1859 11.5834 38.9101 11.7413C38.6785 11.8688 38.4468 11.9962 38.2151 12.1236C37.8939 12.3037 37.5729 12.4841 37.252 12.6647C36.7323 12.9569 36.2123 13.2484 35.6909 13.5376C34.7853 14.0399 33.8909 14.5531 33.0113 15.0997C31.8988 15.7276 30.7245 15.8719 29.4777 15.6185C28.4034 15.2394 27.4319 14.6132 26.4593 14.0299C25.9595 13.7345 25.4592 13.4399 24.9585 13.146C24.6294 12.952 24.3014 12.7561 23.9747 12.5582C22.5613 11.7137 21.15 11.0165 19.4694 11.3292C18.1817 11.8133 17.0101 12.5517 15.8199 13.2337C15.673 13.3179 15.673 13.3179 15.5232 13.4037C15.0288 13.6872 14.5355 13.9722 14.0439 14.2604C12.4316 15.2012 11.0609 15.9273 9.14335 15.6185C8.24044 15.2927 7.43264 14.8237 6.60156 14.3476C6.33211 14.1965 6.06265 14.0455 5.79306 13.8946C0.480673 10.918 0.480673 10.918 0.0882116 9.74063C0.0718232 9.44837 0.0646186 9.15556 0.0626137 8.86285C0.0610874 8.68313 0.0595612 8.50342 0.0579886 8.31825C0.0573135 8.12414 0.0566383 7.93002 0.0559427 7.73003C0.0550372 7.53084 0.0541317 7.33166 0.0531987 7.12644C0.0516972 6.70498 0.0506016 6.28354 0.0500475 5.86208C0.0491747 5.32198 0.0453543 4.78194 0.0408385 4.24187C0.0371702 3.72661 0.0368548 3.21135 0.036085 2.69608C0.0341235 2.50197 0.0321621 2.30785 0.0301412 2.10785C0.030618 1.92814 0.0310947 1.74842 0.0315859 1.56326C0.0307172 1.32571 0.0307172 1.32571 0.0298309 1.08336C0.0882116 0.685484 0.0882116 0.685484 0.302097 0.396031C0.716791 0.100626 1.02099 0.150732 1.51797 0.208898C1.98211 0.404954 1.98211 0.404954 2.46556 0.679899C2.644 0.780204 2.82244 0.88051 3.00629 0.983855C3.19531 1.09285 3.3843 1.2019 3.57325 1.311C3.7667 1.42072 3.96023 1.53029 4.15386 1.6397C5.36286 2.32537 6.56112 3.02867 7.74214 3.76158C8.89276 4.42932 10.0625 4.563 11.3674 4.33931C12.133 4.06805 12.8132 3.70164 13.5149 3.29569C13.9783 3.02862 14.4458 2.76987 14.9139 2.51116C16.1253 1.8397 17.3333 1.16238 18.5311 0.467048C20.5697 -0.672783 22.718 0.498999 24.4934 1.57908Z" fill="black"/>
<path d="M1.51797 19.5901C1.99417 19.8007 1.99417 19.8007 2.49472 20.0958C2.63061 20.1747 2.63061 20.1747 2.76924 20.2552C3.06154 20.4255 3.35209 20.5986 3.64275 20.7716C3.8434 20.8889 4.04417 21.006 4.24508 21.1229C4.64017 21.353 5.03471 21.5841 5.42871 21.8161C6.10131 22.2113 6.77689 22.6008 7.45544 22.9857C7.55136 23.0413 7.64727 23.0969 7.7461 23.1542C8.84114 23.7768 9.80237 24.0319 11.0497 23.8793C12.4109 23.4329 13.6397 22.7268 14.8624 21.9929C15.1801 21.8046 15.4978 21.6164 15.8156 21.4282C15.971 21.3356 16.1264 21.2431 16.2866 21.1478C16.7943 20.8458 17.3023 20.5441 17.8113 20.2441C17.9655 20.153 18.1197 20.0618 18.2785 19.9679C18.9581 19.5926 19.5053 19.5553 20.2736 19.5404C20.4721 19.5345 20.6705 19.5285 20.8749 19.5224C22.3668 19.6004 23.6958 20.5219 24.9402 21.2681C25.2752 21.4672 25.6103 21.6662 25.9455 21.865C26.1113 21.9636 26.2771 22.0621 26.4478 22.1637C26.9041 22.431 27.3639 22.6897 27.827 22.9448C28.0321 23.0589 28.0321 23.0589 28.2413 23.1753C28.4947 23.3158 28.7492 23.4544 29.0048 23.5908C29.1189 23.6547 29.233 23.7186 29.3505 23.7844C29.4975 23.8642 29.4975 23.8642 29.6475 23.9457C30.2839 24.4672 30.6878 24.9384 30.8216 25.754C30.851 26.2964 30.8545 26.8331 30.8485 27.3762C30.8489 27.5741 30.8493 27.772 30.8497 27.9759C30.8495 28.4994 30.8455 29.0226 30.8402 29.546C30.838 29.8669 30.8385 30.1877 30.8402 30.5086C30.8432 31.126 30.8417 31.7431 30.8386 32.3605C30.8394 32.5518 30.8402 32.7431 30.841 32.9402C30.8385 33.1178 30.8359 33.2955 30.8333 33.4785C30.8319 33.7127 30.8319 33.7127 30.8304 33.9515C30.7255 34.4807 30.5337 34.6715 30.1132 34.9997C29.3864 35.1032 28.9615 34.951 28.3446 34.5746C28.1154 34.4374 28.1154 34.4374 27.8816 34.2974C27.7202 34.1982 27.5589 34.0991 27.3926 33.9969C27.0519 33.7928 26.711 33.5891 26.37 33.3856C26.1992 33.2832 26.0284 33.1808 25.8524 33.0753C25.1026 32.6304 24.3433 32.2039 23.5799 31.7827C23.4513 31.7108 23.3227 31.6389 23.1902 31.5647C21.9978 30.9084 20.9982 30.5669 19.6283 30.7104C18.3762 31.0791 17.2653 31.7624 16.1531 32.4281C15.8325 32.6178 15.5119 32.8075 15.1913 32.9972C14.6985 33.2894 14.2063 33.5824 13.7154 33.878C13.5496 33.9768 13.3838 34.0756 13.213 34.1775C13.0645 34.2667 12.916 34.3559 12.763 34.4478C11.9264 34.8906 11.1786 35.0551 10.2355 35.0791C10.0451 35.0873 9.85463 35.0955 9.65841 35.104C8.08446 34.9807 6.51708 33.7398 5.19166 32.9543C4.85849 32.7579 4.52525 32.5616 4.19194 32.3654C4.03316 32.2719 3.87438 32.1784 3.71078 32.0821C3.32683 31.8582 2.9411 31.6389 2.55244 31.4234C2.45094 31.367 2.34944 31.3106 2.24487 31.2524C1.9876 31.1103 1.72955 30.9695 1.47143 30.8289C0.828557 30.4143 0.333448 30.0164 0.0882116 29.2807C0.0717991 28.9835 0.0646162 28.6859 0.0626137 28.3883C0.0610874 28.2054 0.0595612 28.0225 0.0579886 27.8341C0.0573135 27.6365 0.0566383 27.4389 0.0559427 27.2353C0.0550372 27.0326 0.0541317 26.8299 0.0531987 26.621C0.0516971 26.1921 0.0506016 25.7632 0.0500475 25.3342C0.0491747 24.7845 0.0453537 24.2349 0.0408379 23.6852C0.0371697 23.1608 0.0368548 22.6364 0.036085 22.112C0.0341235 21.9144 0.0321621 21.7168 0.0301412 21.5132C0.030618 21.3304 0.0310947 21.1475 0.0315859 20.959C0.0307172 20.7172 0.0307172 20.7172 0.0298309 20.4706C0.0882116 20.0667 0.0882116 20.0667 0.302211 19.7764C0.718456 19.481 1.0196 19.5298 1.51797 19.5901Z" fill="black"/>
<path d="M1.49905 39.0148C2.26609 39.2775 2.94426 39.7324 3.6329 40.1528C3.97285 40.3555 4.31291 40.558 4.6531 40.7603C4.82092 40.8607 4.98874 40.9612 5.16164 41.0646C5.8516 41.475 6.54714 41.8745 7.24702 42.2677C7.3592 42.332 7.47138 42.3964 7.58697 42.4628C8.69086 43.0808 9.78166 43.4305 11.0498 43.2605C12.465 42.7899 13.7433 42.0505 15.0213 41.2946C15.28 41.1435 15.28 41.1435 15.5438 40.9893C16.2375 40.5837 16.9308 40.1782 17.617 39.7602C17.7856 39.6585 17.9542 39.5569 18.1278 39.4522C18.2785 39.36 18.4292 39.2679 18.5845 39.1729C18.9931 38.9711 19.2017 38.9087 19.6482 38.9613C20.1049 39.1301 20.1049 39.1301 20.4226 39.4479C20.4641 39.8294 20.4641 39.8294 20.4663 40.3146C20.4678 40.496 20.4693 40.6774 20.4709 40.8642C20.4706 41.1596 20.4706 41.1596 20.4704 41.4609C20.4711 41.6627 20.4718 41.8645 20.4725 42.0725C20.4734 42.5004 20.4736 42.9282 20.4728 43.3561C20.4719 43.9028 20.4746 44.4493 20.4783 44.996C20.4812 45.5188 20.4806 46.0416 20.4804 46.5644C20.4818 46.76 20.4833 46.9556 20.4848 47.1572C20.4756 48.8658 20.4756 48.8658 19.9461 49.615C19.5874 49.9079 19.5874 49.9079 19.1319 50.171C19.0461 50.2214 18.9604 50.2717 18.872 50.3236C18.5435 50.5146 18.2124 50.7004 17.8809 50.8859C17.7291 50.9714 17.5773 51.0568 17.4209 51.1449C16.7337 51.5315 16.0462 51.9175 15.3567 52.2999C14.4472 52.8044 13.5479 53.3198 12.6615 53.864C11.6183 54.4737 10.667 54.6864 9.46116 54.5398C8.24149 54.1727 7.1605 53.5232 6.07541 52.8717C5.74107 52.6727 5.40659 52.4739 5.07197 52.2753C4.82036 52.126 4.82036 52.126 4.56366 51.9737C4.07744 51.6905 3.58686 51.4182 3.0924 51.1497C2.94082 51.0665 2.78925 50.9834 2.63307 50.8977C2.34738 50.7417 2.0605 50.5879 1.77229 50.4366C1.64334 50.3656 1.51439 50.2945 1.38153 50.2213C1.21328 50.1315 1.21328 50.1315 1.04162 50.0398C0.420548 49.5202 0.132432 49.0024 0.0296994 48.2098C0.00420816 47.657 0.000234497 47.1078 0.00389786 46.5544C0.00328991 46.3526 0.00268196 46.1508 0.00205559 45.9429C0.0016242 45.5177 0.0024669 45.0927 0.00544925 44.6675C0.00908439 44.1227 0.00697344 43.5782 0.00317913 43.0334C0.000332836 42.5126 0.00232401 41.9917 0.00389786 41.4709C0.00196842 41.1775 0.00196842 41.1775 0 40.8781C0.00200304 40.6973 0.00400607 40.5165 0.00606981 40.3301C0.00657536 40.1709 0.00708092 40.0116 0.0076018 39.8475C0.0882934 39.4479 0.0882934 39.4479 0.380943 39.1553C0.782563 38.9397 1.05357 38.9266 1.49905 39.0148Z" fill="black"/>
</svg>
